<svg width="100" height="100" viewBox="0 0 100 100" fill="none" xmlns="http://www.w3.org/2000/svg">
<g clip-path="url(#clip0_1_2)">
<rect width="100" height="100" fill="transparent"/>
<path d="M17.1659 81.9994C9.96212 59.6107 23.8304 42.2718 37.6085 37.3644C49.4558 33.1447 61.5243 40.6995 64.4059 49.655C66.9497 57.5611 62.3167 64.748 56.6393 66.7702C50.9619 68.7923 47.233 65.5975 46.1749 62.3091C45.1168 59.0208 47.7895 55.8029 49.5391 55.4961" stroke="black" stroke-width="8" stroke-linecap="round"/>
<path d="M4.37118 57.2177C8.4356 35.0991 26.036 20.6756 46.9767 20.0538C67.9175 19.432 78.8885 35.4012 80.826 46.0657C82.7634 56.7302 76.8725 73.7793 65.8651 77.917C54.8578 82.0548 49.8147 79.3955 44.4403 85.5899C40.1885 90.4906 41.611 95.2855 41.611 95.2855" stroke="black" stroke-width="8" stroke-linecap="round"/>
<path d="M55.4651 95.3222C72.9112 93.1701 88.2589 80.9249 93.4959 62.9792C100.517 38.918 86.704 13.7204 62.6428 6.69887C50.9301 3.28086 38.9481 4.79997 28.9245 10.035" stroke="black" stroke-width="8" stroke-linecap="round"/>
<path d="M33.5812 57.4009C31.4109 60.5924 30.5013 65.8436 31.7522 70.7472C33.413 77.2578 29.3023 85.5046 27.9709 90.0672" stroke="black" stroke-width="8" stroke-linecap="round"/>
</g>
<defs>
<clipPath id="clip0_1_2">
<rect width="100" height="100" fill="transparent"/>
</clipPath>
</defs>
</svg>
